# This file uses centimeters as units for non-parametric coordinates.

v -24.427917 16.352209 12.853621
v 24.427919 16.352209 12.853621
v -24.427917 16.352209 -12.157575
v 24.427919 16.352209 -12.157575
v 19.986479 16.352209 12.853621
v 19.986479 16.352209 -12.157575
v 15.545038 17.438580 12.853621
v 15.545038 17.438580 -12.157575
v 11.103599 17.536811 12.853621
v 11.103599 17.536811 -12.157575
v 6.662159 17.586657 12.853621
v 6.662159 17.586657 -12.157575
v 2.220720 17.586657 12.853621
v 2.220720 17.586657 -12.157575
v -2.220720 17.586657 12.853621
v -2.220720 17.586657 -12.157575
v -6.662159 17.586657 12.853621
v -6.662159 17.586657 -12.157575
v -11.103599 17.536811 12.853621
v -11.103599 17.536811 -12.157575
v -15.545040 17.438580 12.853621
v -15.545040 17.438580 -12.157575
v -19.986479 16.352209 12.853621
v -19.986479 16.352209 -12.157575
v 24.427919 16.352209 -7.989042
v 19.986479 17.427161 -7.989042
v 15.545039 17.609534 -7.989042
v 11.103599 17.833870 -7.989042
v 6.662159 17.932443 -7.989042
v 2.220720 17.932443 -7.989042
v -2.220720 17.932443 -7.989042
v -6.662159 17.932443 -7.989042
v -11.103599 17.833870 -7.989042
v -15.545040 17.609534 -7.989042
v -19.986479 17.427161 -7.989042
v -24.427917 16.352209 -7.989042
v 24.427919 16.352210 -3.820510
v 19.986479 17.497698 -3.820510
v 15.545039 17.801711 -3.820510
v 11.103599 18.123779 -3.820510
v 6.662159 18.259691 -3.820510
v 2.220720 18.259691 -3.820510
v -2.220720 18.259691 -3.820510
v -6.662159 18.259692 -3.820510
v -11.103600 18.123779 -3.820510
v -15.545040 17.801711 -3.820510
v -19.986479 17.497698 -3.820510
v -24.427917 16.352209 -3.820510
v 24.427919 16.352209 0.348023
v 19.986479 17.533576 0.348023
v 15.545039 17.883867 0.348023
v 11.103599 18.242687 0.348023
v 6.662159 18.392573 0.348023
v 2.220720 18.392573 0.348023
v -2.220720 18.392573 0.348023
v -6.662159 18.392573 0.348023
v -11.103600 18.242686 0.348023
v -15.545040 17.883867 0.348023
v -19.986479 17.533576 0.348023
v -24.427917 16.352209 0.348023
v 24.427919 16.352210 4.516556
v 19.986479 17.497698 4.516556
v 15.545039 17.801711 4.516556
v 11.103599 18.123779 4.516556
v 6.662159 18.259691 4.516556
v 2.220720 18.259691 4.516556
v -2.220720 18.259691 4.516556
v -6.662159 18.259692 4.516556
v -11.103600 18.123779 4.516556
v -15.545040 17.801711 4.516556
v -19.986479 17.497698 4.516556
v -24.427917 16.352209 4.516556
v 24.427919 16.352209 8.685088
v 19.986479 17.427161 8.685088
v 15.545039 17.609534 8.685088
v 11.103599 17.833870 8.685088
v 6.662159 17.932443 8.685088
v 2.220720 17.932443 8.685088
v -2.220720 17.932443 8.685088
v -6.662159 17.932443 8.685088
v -11.103600 17.833870 8.685088
v -15.545040 17.609534 8.685088
v -19.986479 17.427161 8.685088
v -24.427917 16.352209 8.685088
vt 0.987529 0.749188
vt 0.899028 0.749188
vt 0.899028 0.666126
vt 0.987529 0.666126
vt 0.810528 0.749188
vt 0.810528 0.666125
vt 0.899028 0.583063
vt 0.987529 0.583063
vt 0.722027 0.749188
vt 0.722027 0.666125
vt 0.810528 0.583063
vt 0.899028 0.500000
vt 0.987529 0.500000
vt 0.633526 0.749188
vt 0.633526 0.666126
vt 0.722027 0.583063
vt 0.810528 0.500000
vt 0.899028 0.416937
vt 0.987529 0.416937
vt 0.545026 0.749188
vt 0.545026 0.666126
vt 0.633526 0.583063
vt 0.722027 0.500000
vt 0.810528 0.416937
vt 0.899028 0.333875
vt 0.987529 0.333875
vt 0.456525 0.749188
vt 0.456525 0.666125
vt 0.545026 0.583063
vt 0.633526 0.500000
vt 0.722027 0.416937
vt 0.810528 0.333875
vt 0.899028 0.250812
vt 0.987529 0.250812
vt 0.368025 0.749188
vt 0.368025 0.666125
vt 0.456525 0.583063
vt 0.545026 0.500000
vt 0.633526 0.416938
vt 0.722027 0.333875
vt 0.810528 0.250812
vt 0.279524 0.749188
vt 0.279524 0.666125
vt 0.368025 0.583063
vt 0.456525 0.500000
vt 0.545026 0.416938
vt 0.633526 0.333875
vt 0.722027 0.250812
vt 0.191023 0.749188
vt 0.191023 0.666125
vt 0.279524 0.583063
vt 0.368025 0.500000
vt 0.456525 0.416938
vt 0.545026 0.333875
vt 0.633526 0.250812
vt 0.102523 0.749188
vt 0.102522 0.666125
vt 0.191023 0.583063
vt 0.279524 0.500000
vt 0.368025 0.416937
vt 0.456525 0.333875
vt 0.545026 0.250812
vt 0.014022 0.749188
vt 0.014022 0.666126
vt 0.102522 0.583063
vt 0.191023 0.500000
vt 0.279524 0.416937
vt 0.368025 0.333875
vt 0.456525 0.250812
vt 0.014022 0.583063
vt 0.102522 0.500000
vt 0.191023 0.416937
vt 0.279524 0.333875
vt 0.368025 0.250812
vt 0.014022 0.500000
vt 0.102523 0.416937
vt 0.191023 0.333875
vt 0.279524 0.250812
vt 0.014022 0.416937
vt 0.102522 0.333875
vt 0.191023 0.250812
vt 0.014022 0.333875
vt 0.102522 0.250812
vt 0.014022 0.250812
vn -0.119165 0.984723 0.126967
vn -0.129362 0.982156 0.136512
vn -0.140567 0.986981 0.078166
vn -0.181966 0.980993 0.067393
vn 0.129362 0.982156 0.136512
vn 0.119165 0.984723 0.126967
vn 0.181966 0.980993 0.067393
vn 0.140567 0.986981 0.078166
vn 0.088926 0.990802 0.102000
vn 0.073422 0.994604 0.073298
vn 0.026450 0.997440 0.066443
vn 0.035145 0.997195 0.066089
vn 0.008330 0.996778 0.079771
vn 0.010746 0.996903 0.077904
vn -0.000000 0.996577 0.082668
vn -0.000000 0.996757 0.080466
vn 0.000000 0.996577 0.082668
vn 0.000000 0.996757 0.080466
vn -0.008330 0.996778 0.079771
vn -0.010746 0.996903 0.077904
vn -0.026450 0.997440 0.066443
vn -0.035145 0.997195 0.066089
vn -0.088926 0.990802 0.102000
vn -0.073422 0.994604 0.073298
vn 0.140567 0.986981 -0.078166
vn 0.181965 0.980993 -0.067393
vn 0.119165 0.984723 -0.126967
vn 0.129362 0.982156 -0.136511
vn 0.073422 0.994604 -0.073298
vn 0.088926 0.990802 -0.102000
vn 0.035145 0.997195 -0.066089
vn 0.026450 0.997440 -0.066443
vn 0.010746 0.996903 -0.077904
vn 0.008330 0.996778 -0.079771
vn -0.000000 0.996757 -0.080466
vn -0.000000 0.996577 -0.082668
vn 0.000000 0.996757 -0.080466
vn 0.000000 0.996577 -0.082668
vn -0.010746 0.996903 -0.077904
vn -0.008330 0.996778 -0.079771
vn -0.035145 0.997195 -0.066089
vn -0.026450 0.997440 -0.066443
vn -0.073422 0.994604 -0.073298
vn -0.088926 0.990802 -0.102000
vn -0.140567 0.986981 -0.078166
vn -0.129362 0.982156 -0.136511
vn -0.181966 0.980993 -0.067393
vn -0.119165 0.984723 -0.126967
vn 0.158018 0.987331 -0.014427
vn 0.247960 0.968751 -0.006183
vn 0.066466 0.997281 -0.031828
vn 0.049065 0.997716 -0.046431
vn 0.014619 0.998458 -0.053558
vn 0.000000 0.998480 -0.055107
vn 0.000000 0.998480 -0.055107
vn -0.014619 0.998458 -0.053558
vn -0.049065 0.997716 -0.046431
vn -0.066466 0.997281 -0.031828
vn -0.158018 0.987331 -0.014427
vn -0.247960 0.968751 -0.006183
vn 0.165407 0.986225 0.000000
vn 0.253399 0.967362 0.000000
vn 0.074945 0.997188 0.000000
vn 0.054310 0.998524 0.000000
vn 0.016079 0.999871 0.000000
vn 0.000000 1.000000 0.000000
vn 0.000000 1.000000 -0.000000
vn -0.016079 0.999871 0.000000
vn -0.054310 0.998524 0.000000
vn -0.074945 0.997188 0.000000
vn -0.165407 0.986225 0.000000
vn -0.253399 0.967362 -0.000000
vn 0.158018 0.987331 0.014427
vn 0.247960 0.968751 0.006183
vn 0.066466 0.997281 0.031828
vn 0.049065 0.997716 0.046431
vn 0.014619 0.998458 0.053558
vn 0.000000 0.998480 0.055107
vn 0.000000 0.998480 0.055107
vn -0.014619 0.998458 0.053558
vn -0.049065 0.997716 0.046431
vn -0.066466 0.997281 0.031828
vn -0.158018 0.987331 0.014427
vn -0.247960 0.968751 0.006183
f 1/1/1 23/2/2 83/3/3 84/4/4
f 5/56/5 2/63/6 73/64/7 74/57/8
f 7/49/9 5/56/5 74/57/8 75/50/10
f 9/42/11 7/49/9 75/50/10 76/43/12
f 11/35/13 9/42/11 76/43/12 77/36/14
f 13/27/15 11/35/13 77/36/14 78/28/16
f 15/20/17 13/27/15 78/28/16 79/21/18
f 17/14/19 15/20/17 79/21/18 80/15/20
f 19/9/21 17/14/19 80/15/20 81/10/22
f 21/5/23 19/9/21 81/10/22 82/6/24
f 23/2/2 21/5/23 82/6/24 83/3/3
f 26/80/25 25/82/26 4/84/27 6/83/28
f 27/77/29 26/80/25 6/83/28 8/81/30
f 28/73/31 27/77/29 8/81/30 10/78/32
f 29/68/33 28/73/31 10/78/32 12/74/34
f 30/61/35 29/68/33 12/74/34 14/69/36
f 31/54/37 30/61/35 14/69/36 16/62/38
f 32/47/39 31/54/37 16/62/38 18/55/40
f 33/40/41 32/47/39 18/55/40 20/48/42
f 34/32/43 33/40/41 20/48/42 22/41/44
f 35/25/45 34/32/43 22/41/44 24/33/46
f 36/26/47 35/25/45 24/33/46 3/34/48
f 38/76/49 37/79/50 25/82/26 26/80/25
f 39/72/51 38/76/49 26/80/25 27/77/29
f 40/67/52 39/72/51 27/77/29 28/73/31
f 41/60/53 40/67/52 28/73/31 29/68/33
f 42/53/54 41/60/53 29/68/33 30/61/35
f 43/46/55 42/53/54 30/61/35 31/54/37
f 44/39/56 43/46/55 31/54/37 32/47/39
f 45/31/57 44/39/56 32/47/39 33/40/41
f 46/24/58 45/31/57 33/40/41 34/32/43
f 47/18/59 46/24/58 34/32/43 35/25/45
f 48/19/60 47/18/59 35/25/45 36/26/47
f 50/71/61 49/75/62 37/79/50 38/76/49
f 51/66/63 50/71/61 38/76/49 39/72/51
f 52/59/64 51/66/63 39/72/51 40/67/52
f 53/52/65 52/59/64 40/67/52 41/60/53
f 54/45/66 53/52/65 41/60/53 42/53/54
f 55/38/67 54/45/66 42/53/54 43/46/55
f 56/30/68 55/38/67 43/46/55 44/39/56
f 57/23/69 56/30/68 44/39/56 45/31/57
f 58/17/70 57/23/69 45/31/57 46/24/58
f 59/12/71 58/17/70 46/24/58 47/18/59
f 60/13/72 59/12/71 47/18/59 48/19/60
f 62/65/73 61/70/74 49/75/62 50/71/61
f 63/58/75 62/65/73 50/71/61 51/66/63
f 64/51/76 63/58/75 51/66/63 52/59/64
f 65/44/77 64/51/76 52/59/64 53/52/65
f 66/37/78 65/44/77 53/52/65 54/45/66
f 67/29/79 66/37/78 54/45/66 55/38/67
f 68/22/80 67/29/79 55/38/67 56/30/68
f 69/16/81 68/22/80 56/30/68 57/23/69
f 70/11/82 69/16/81 57/23/69 58/17/70
f 71/7/83 70/11/82 58/17/70 59/12/71
f 72/8/84 71/7/83 59/12/71 60/13/72
f 74/57/8 73/64/7 61/70/74 62/65/73
f 75/50/10 74/57/8 62/65/73 63/58/75
f 76/43/12 75/50/10 63/58/75 64/51/76
f 77/36/14 76/43/12 64/51/76 65/44/77
f 78/28/16 77/36/14 65/44/77 66/37/78
f 79/21/18 78/28/16 66/37/78 67/29/79
f 80/15/20 79/21/18 67/29/79 68/22/80
f 81/10/22 80/15/20 68/22/80 69/16/81
f 82/6/24 81/10/22 69/16/81 70/11/82
f 83/3/3 82/6/24 70/11/82 71/7/83
f 84/4/4 83/3/3 71/7/83 72/8/84
